# xmcd
#
# Track frame offsets:
#	150
#	14152
#	24486
#	35314
#	49734
#	63376
#	76606
#	89624
#	103096
#	114482
#	127949
#	139529
#	153673
#	167312
#	181390
#	194583
#	208471
#	221019
#	234488
#	245695
#
# Disc length: 3433 seconds
#
# Revision: 1
# Processed by: cddbd v1.5.2PL0 Copyright (c) Steve Scherf et al.
# Submitted via: audiograbber 1.83.01
#
DISCID=190d6714
DTITLE=John Lee Hooker - Brothers in Blues
DYEAR=1900
DGENRE=
TTITLE0=I'm In The Mood
TTITLE1=Baby Please Don't Go
TTITLE2=Gotta Boogie
TTITLE3=Woman In My LIfe
TTITLE4=Time Is Marching
TTITLE5=Come Back Baby
TTITLE6=Lord What More Can I Do
TTITLE7=John Lee's House Rent Boogie
TTITLE8=Wheel And Deal
TTITLE9=Too Much Boogie
TTITLE10=Queen Bee
TTITLE11=Boogie Chillin'
TTITLE12=Hobo Blues
TTITLE13=Turn Over A New Leaf
TTITLE14=Hoogie Boogie
TTITLE15=Bad Boy
TTITLE16=Leave My Wife Alone
TTITLE17=I Met The Grindin' Man
TTITLE18=Jume Me One More Time
TTITLE19=Throw This Old Dog A Bone
EXTD=
EXTT0=
EXTT1=
EXTT2=
EXTT3=
EXTT4=
EXTT5=
EXTT6=
EXTT7=
EXTT8=
EXTT9=
EXTT10=
EXTT11=
EXTT12=
EXTT13=
EXTT14=
EXTT15=
EXTT16=
EXTT17=
EXTT18=
EXTT19=
PLAYORDER=
